<svg width="972" height="860" viewBox="0 0 972 860" fill="none" xmlns="http://www.w3.org/2000/svg">
<mask id="mask0_16_76" style="mask-type:luminance" maskUnits="userSpaceOnUse" x="0" y="0" width="972" height="860">
<path d="M0 -3.8147e-05H972V860H0V-3.8147e-05Z" fill="white"/>
</mask>
<g mask="url(#mask0_16_76)">
<mask id="mask1_16_76" style="mask-type:luminance" maskUnits="userSpaceOnUse" x="204" y="444" width="563" height="102">
<path d="M204.125 447.971L766.137 444.946L766.808 542.497L204.796 545.523L204.125 447.971Z" fill="white"/>
</mask>
<g mask="url(#mask1_16_76)">
<g opacity="0.100006">   
<mask id="mask2_16_76" style="mask-type:luminance" maskUnits="userSpaceOnUse" x="211" y="445" width="553" height="99">
<path d="M211.41 448.658L763.043 445.689L763.692 540.104L212.06 543.073L211.41 448.658Z" fill="white"/>
</mask>
<g mask="url(#mask2_16_76)">            
<g opacity="0.0909119">
<path d="M762.865 453.787C757.59 457.915 627.534 452.806 487.025 476.703C346.723 500.565 225.475 543.854 212.423 543.058C206.878 542.72 265.723 524.295 299.526 509.998C332.707 495.912 391.481 477.479 471.921 463.786C551.995 450.154 631.193 445.694 684.279 446.21C738.238 446.734 765.94 451.97 762.865 453.787Z" fill="black"/>
</g>
</g>
<mask id="mask3_16_76" style="mask-type:luminance" maskUnits="userSpaceOnUse" x="218" y="445" width="543" height="96">
<path d="M218.685 448.577L759.941 445.663L760.574 537.717L219.3                               18 540.631L218.685 448.577Z" fill="white"/> 
</mask>
<g mask="url(#mask3_16_76)">
<g opacity="0.181824">
<path d="M759.762 453.328C754.52 457.351 626.041 452.692 487.024 476.243C348.206 499.759 232.591 541.359 219.705 540.616C214.225 540.3 267.993 523.01 301.502 509.037C334.394 495.271 392.607 477.222 472.195 463.726C551.419 450.292 629.714 445.772 682.165 446.149C735.482 446.532 762.814 451.555 759.762 453.328Z" fill="black"/>
</g>
</g>
<mask id="mask4_16_76" style="mask-type:luminance" maskUnits="userSpaceOnUse" x="225" y="445" width="533" height="94">
<path d="M225.954 448.49L756.841 445.632L757.457 535.33L226.57 538.187L225.954 448.49Z" fill="white"/>
</mask>
<g mask="url(#mask4_16_76)">
<g opacity="0.27272">
<path d="M756.658 452.867C751.449 456.787 624.549 452.577 487.023 475.782C349.69 498.955 239.706 538.864 226.984 538.174C221.572 537.881 270.263 521.724 303.478 508.077C336.08 494.629 393.734 476.963 472.469 463.665C550.844 450.428 628.233 445.849 680.049 446.087C732.724 446.329 759.687 451.139 756.658 452.867Z" fill="black"/>
</g>
</g>
<mask id="mask5_16_76" style="mask-type:luminance" maskUnits="userSpaceOnUse" x="233" y="445" width="522" height="91">
<path d="M233.218 448.396L753.739 445.595L754.339 532.942L233.819 535.744L233.218 448.396Z" fill="white"/>
</mask>
<g mask="url(#mask5_16_76)">
<g opacity="0.363632">
<path d="M753.555 452.409C748.377 456.224 623.056 452.463 487.022 475.322C351.173 498.15 246.822 536.368 234.266 535.732C228.919 535.461 272.533 520.438 305.454 507.115C337.767 493.988 394.859 476.705 472.744 463.605C550.269 450.566 626.753 445.926 677.936 446.026C729.968 446.127 756.562 450.724 753.555 452.409Z" fill="black"/>
</g>
</g>
<mask id="mask6_16_76" style="mask-type:luminance" maskUnits="userSpaceOnUse" x="240" y="445" width="512" height="89">
<path d="M240.475 448.298L750.639 445.552L751.224 530.555L241.059 533.301L240.475 448.298Z" fill="white"/>
</mask>
<g mask="url(#mask6_16_76)">
<g opacity="0.454544">
<path d="M750.452 451.95C745.305 455.661 621.565 452.35 487.021 474.862C352.658 497.345 253.938 533.874 241.546 533.291C236.266 533.042 274.804 519.153 307.43 506.154C339.455 493.347 395.985 476.447 473.017 463.545C549.694 450.704 625.275 446.004 675.821 445.964C727.209 445.924 753.436 450.309 750.452 451.95Z" fill="black"/>
</g>
</g>
<mask id="mask7_16_76" style="mask-type:luminance" maskUnits="userSpaceOnUse" x="247" y="445" width="502" height="86">
<path d="M247.72 448.194L747.538 445.504L748.107 528.169L248.289 530.859L247.72 448.194Z" fill="white"/>
</mask>
<g mask="url(#mask7_16_76)">
<g opacity="0.545456">
<path d="M747.35 451.489C742.235 455.096 620.071 452.235 487.02 474.401C354.141 496.539 261.054 531.378 248.826 530.848C243.615 530.622 277.075 517.866 309.405 505.192C341.141 492.705 397.11 476.188 473.292 463.484C549.118 450.84 623.794 446.082 673.708 445.903C724.453 445.721 750.31 449.894 747.35 451.489Z" fill="black"/>
</g>
</g>
<mask id="mask8_16_76" style="mask-type:luminance" maskUnits="userSpaceOnUse" x="254" y="445" width="491" height="84">
<path d="M254.949 448.078L744.437 445.443L744.99 525.781L255.501 528.416L254.949 448.078Z" fill="white"/>
</mask>
<g mask="url(#mask8_16_76)">
<g opacity="0.636368">
<path d="M744.246 451.03C739.163 454.533 618.577 452.12 487.019 473.941C355.624 495.734 268.169 528.883 256.107 528.406C250.962 528.203 279.345 516.581 311.38 504.231C342.828 492.064 398.236 475.93 473.566 463.424C548.542 450.977 622.318 446.291 671.592 445.841C721.693 445.384 747.183 449.479 744.246 451.03Z" fill="black"/>
</g>
</g>
<mask id="mask9_16_76" style="mask-type:luminance" maskUnits="userSpaceOnUse" x="262" y="445" width="480" height="81">
<path d="M262.157 447.965L741.337 445.385L741.873 523.394L262.693 525.974L262.157 447.965Z" fill="white"/>
</mask>
<g mask="url(#mask9_16_76)">
<g opacity="0.72728">
<path d="M741.143 450.571C736.092 453.969 617.085 452.006 487.017 473.48C357.109 494.93 275.284 526.388 263.387 525.965C258.308 525.783 281.615 515.296 313.356 503.269C344.514 491.422 399.362 475.671 473.84 463.363C547.967 451.114 620.837 446.236 669.478 445.78C718.938 445.315 744.057 449.063 741.143 450.571Z" fill="black"/>
</g>
</g>
<mask id="mask10_16_76" style="mask-type:luminance" maskUnits="userSpaceOnUse" x="269" y="445" width="470" height="79">
<path d="M269.326 447.837L738.236 445.313L738.756 521.008L269.846 523.532L269.326 447.837Z" fill="white"/>
</mask>
<g mask="url(#mask10_16_76)">
<g opacity="0.818176">
<path d="M738.04 450.111C733.02 453.406 615.592 451.891 487.017 473.02C358.593 494.124 282.401 523.893 270.668 523.522C265.655 523.364 283.886 514.01 315.332 502.309C346.201 490.781 400.488 475.412 474.113 463.303C547.392 451.252 619.356 446.313 667.364 445.718C716.18 445.112 740.931 448.648 738.04 450.111Z" fill="black"/>
</g>
</g>
<mask id="mask11_16_76" style="mask-type:luminance" maskUnits="userSpaceOnUse" x="276" y="445" width="460" height="77">
<path d="M276.434 447.702L735.135 445.233L735.639 518.621L276.938 521.09L276.434 447.702Z" fill="white"/>
</mask>
<g mask="url(#mask11_16_76)">
<g opacity="0.909088">
<path d="M734.936 449.652C729.949 452.842 614.099 451.776 487.015 472.56C360.076 493.319 289.516 521.399 277.948 521.081C273.002 520.945 286.156 512.724 317.308 501.348C347.887 490.141 401.613 475.154 474.387 463.242C546.816 451.388 617.876 446.391 665.248 445.657C713.422 444.91 737.804 448.232 734.936 449.652Z" fill="black"/>
</g>
</g>
</g>
</g>
<path d="M469.801 335.315C471.173 333.429 472.924 331.689 475.113 330.35C477.283 329.02 480.062 328.17 482.834 328.429C485.605 328.674 488.015 329.98 489.731 331.615C491.461 333.26 492.631 335.217 493.494 337.22C495.192 341.252 495.636 345.567 495.225 349.779C494.813 353.991 493.542 358.192 491.089 361.947C489.849 363.808 488.32 365.585 486.285 366.983C484.269 368.366 481.673 369.34 478.839 369.214C476.117 369.108 473.498 367.899 471.622 366.3C469.724 364.687 468.332 362.744 467.336 360.699C465.348 356.59 464.805 352.129 465.189 347.784C465.651 343.443 467.043 339.108 469.801 335.315ZM498.782 355.015C499.182 351.288 500.375 347.564 502.725 344.292C503.894 342.666 505.392 341.166 507.259 340C509.18 338.755 511.711 337.894 514.279 338.151C516.837 338.407 518.94 339.675 520.414 341.175C521.87 342.598 522.854 344.277 523.584 345.999C525.014 349.455 525.38 353.15 525.023 356.757C524.68 360.364 523.6 363.963 521.519 367.188C520.471 368.787 519.175 370.316 517.456 371.525C515.698 372.813 513.416 373.786 510.799 373.698C508.265 373.615 505.902 372.436 504.254 370.947C502.638 369.551 501.457 367.873 500.609 366.115C498.918 362.577 498.456 358.745 498.782 355.015ZM529.801 362.072C530.137 358.961 531.125 355.843 533.076 353.099C534.044 351.734 535.283 350.471 536.828 349.48C538.501 348.317 540.78 347.453 543.143 347.7C545.493 347.969 547.285 349.193 548.514 350.564C549.707 351.761 550.501 353.163 551.097 354.602C552.256 357.485 552.552 360.562 552.261 363.562C551.965 366.565 551.081 369.56 549.379 372.256C548.514 373.594 547.454 374.873 546.05 375.899C544.558 377.084 542.582 378.063 540.18 378.012C537.842 377.949 535.727 376.794 534.308 375.423C532.976 374.239 532.001 372.832 531.307 371.355C529.911 368.394 529.533 365.193 529.801 362.072ZM555.666 368.784C555.945 366.289 556.726 363.78 558.276 361.565C559.042 360.457 560.022 359.434 561.246 358.618C562.671 357.535 564.708 356.665 566.867 356.908C569.002 357.186 570.477 358.374 571.472 359.61C572.385 360.582 573.002 361.711 573.458 362.861C574.352 365.173 574.572 367.628 574.337 370.026C574.106 372.423 573.415 374.818 572.083 376.98C571.413 378.057 570.585 379.09 569.498 379.927C568.268 381.017 566.598 381.994 564.412 381.983C562.266 381.94 560.408 380.809 559.209 379.555C558.164 378.585 557.401 377.447 556.847 376.257C555.754 373.869 555.456 371.295 555.666 368.784ZM581.541 375.503C581.749 373.621 582.338 371.719 583.478 370.029C584.041 369.183 584.77 368.396 585.667 367.758C586.846 366.759 588.629 365.878 590.585 366.117C592.512 366.404 593.679 367.551 594.43 368.66C595.074 369.404 595.505 370.258 595.826 371.128C596.448 372.865 596.596 374.696 596.414 376.491C596.246 378.284 595.747 380.075 594.794 381.71C594.312 382.523 593.718 383.305 592.942 383.959C591.98 384.951 590.618 385.925 588.649 385.956C586.697 385.934 585.09 384.832 584.117 383.69C583.356 382.936 582.797 382.063 582.395 381.16C581.596 379.344 581.383 377.399 581.541 375.503ZM602.265 381.874C602.406 380.609 602.791 379.317 603.529 378.151C603.897 377.568 604.362 377.015 604.932 376.552C605.865 375.635 607.402 374.75 609.155 374.983C610.871 375.283 611.729 376.388 612.242 377.366C612.605 377.886 612.856 378.464 613.04 379.044C613.396 380.21 613.469 381.424 613.347 382.613C613.239 383.8 612.93 384.989 612.357 386.095C612.059 386.645 611.702 387.18 611.24 387.647C610.538 388.538 609.487 389.518 607.731 389.587C605.971 389.587 604.621 388.506 603.875 387.481C603.4 386.941 603.046 386.339 602.797 385.717C602.296 384.475 602.166 383.162 602.265 381.874ZM620.41 388.08C620.533 387.099 620.885 386.037 621.629 385.178C622.315 384.342 623.605 383.452 625.156 383.676C626.662 383.99 627.203 385.054 627.474 385.897C627.752 386.785 627.795 387.683 627.705 388.565C627.626 389.445 627.408 390.326 626.961 391.161C626.526 391.958 625.783 392.938 624.243 393.045C622.675 393.064 621.579 392.013 621.056 391.101C620.489 390.137 620.344 389.092 620.41 388.08ZM655.875 380.526C631.912 370.593 608.417 359.786 585.346 348.332C562.303 336.838 539.595 324.903 516.451 313.783C493.319 302.735 469.699 292.271 444.79 285.696C432.357 282.439 419.608 280.292 406.813 279.784C401.557 279.577 396.298 279.699 391.075 280.116C392.467 280.096 393.624 280.105 394.495 280.123C394.495 280.123 372.088 281.064 345.312 292.49C332.08 298.707 319.846 306.795 308.707 315.808C314.082 316.956 319.538 317.999 324.978 318.934C333.111 320.319 341.301 321.477 349.538 322.319C357.774 323.158 366.061 323.693 374.365 323.714C382.662 323.719 391.003 323.241 399.183 321.688C391.197 323.905 382.84 325.083 374.468 325.764C366.084 326.431 357.646 326.579 349.221 326.414C340.794 326.248 332.377 325.754 323.979 325.027C316.323 324.35 308.753 323.504 301.079 322.376C298.435 324.774 295.853 327.227 293.34 329.737C293.034 330.089 292.727 330.433 292.423 330.789C292.423 330.789 374.003 349.045 450.557 324.969C450.557 324.969 426.586 374.396 345.392 380.148C286.937 384.29 265.666 377.772 258.338 373.796C258.125 374.133 257.896 374.463 257.685 374.8C250.837 385.863 244.725 397.371 239.851 409.196C239.546 410.325 239.387 411.623 239.521 412.679C239.688 414.271 240.308 415.634 241.416 416.824C243.624 419.235 247.991 420.789 252.605 421.55C262.009 423.051 272.385 422.327 282.477 421.138C292.652 419.896 302.72 417.961 312.868 415.781L343.453 409.421C384.303 401.066 425.803 394.506 467.683 391.613C509.545 388.65 551.666 389.137 593.376 392.809C628.761 395.897 682.363 405.217 716.948 412.315C716.948 412.315 645.349 386.385 620.048 375.774C607.393 370.359 594.855 364.735 582.458 358.912C570.159 353.054 557.648 347.596 544.979 342.437C532.278 337.357 519.379 332.63 506.136 328.8C499.526 326.85 492.822 325.136 486.005 323.845C482.596 323.199 479.158 322.672 475.696 322.312C472.241 321.949 468.738 321.662 465.248 321.986C472.198 320.923 479.339 321.57 486.293 322.421C493.271 323.319 500.174 324.655 506.996 326.236C520.612 329.494 533.903 333.734 546.904 338.527C559.932 343.271 572.626 348.695 585.163 354.321C597.611 359.979 610.089 365.548 622.715 370.835C647.371 381.292 673.073 392.461 699.421 398.656C707.044 400.448 730.286 404.436 730.286 404.436C720.723 403.272 694.346 395.096 692.327 394.407C679.991 390.171 667.867 385.47 655.875 380.526Z" fill="#F2F2F2"/>
<path d="M719.252 428.707C745.501 430.821 771.351 434.619 796.998 440.228C764.648 432.018 732.645 427.062 697.41 424.894V427.418C704.7 427.723 712.146 428.145 719.252 428.707Z" fill="black"/>
<path d="M710.547 400.228C716.861 401.942 723.486 403.619 730.035 404.436C723.534 403.395 716.883 401.503 710.665 399.579C706.331 398.209 702.269 396.726 697.409 395.185V396.396C702.269 397.742 706.299 399.041 710.547 400.228Z" fill="black"/>
<path d="M715.941 412.316C709.782 410.934 704.7 409.615 697.41 408.345V408.666C704.7 409.829 709.779 411.042 715.941 412.316Z" fill="black"/>
<path d="M253.479 499.861C260.485 501.375 267.578 501.571 274.472 501.192C281.413 500.788 288.001 499.816 294.602 498.744C301.689 497.543 308.699 496.825 315.659 494.675H239.62C243.894 497.9 248.667 498.824 253.479 499.861Z" fill="black"/>
<path d="M485.29 450.38C536.197 438.511 587.714 430.036 640.32 427.607C659.486 426.681 679.185 426.595 697.41 427.418V424.894C679.185 423.658 659.394 423.323 640.136 423.833C587.099 425.319 534.779 433.351 483.366 444.552C457.646 450.167 432.27 456.517 406.952 463.264C383.068 469.627 359.365 476.278 335.465 482.193C362.861 473.236 389.969 463.83 417.508 455.464C451.388 445.086 485.797 435.898 520.908 429.384C555.977 422.877 591.848 419.013 627.789 419.891C591.875 418.351 555.826 421.555 520.482 427.437C485.097 433.326 450.349 441.916 416.114 451.702C381.849 461.41 348.172 472.754 314.212 482.716C305.734 485.118 297.155 487.56 288.671 489.189C280.158 490.795 271.467 491.623 263.107 490.857C254.775 490.13 246.826 487.58 240.903 482.888C237.944 480.559 235.482 477.75 233.608 474.631C232.668 473.073 231.877 471.439 231.238 469.764C230.611 468.145 230.083 466.254 229.885 464.85L229.748 464.866C228.317 456.481 229.024 447.558 230.647 438.899C230.707 438.604 230.777 438.31 230.839 438.016C230.97 439.386 231.103 440.228 231.103 440.228C231.103 440.228 239.807 465.491 319.1 440.538C460.91 395.908 538.682 394.333 586.594 394.446C588.785 394.585 590.471 394.727 592.659 394.884C628.02 397.377 663.39 402.139 697.41 408.666V408.344C663.39 401.247 628.257 395.896 592.873 392.809C551.164 389.138 509.294 388.651 467.432 391.613C425.551 394.505 384.178 401.066 343.327 409.421L312.805 415.781C302.658 417.962 292.619 419.897 282.445 421.138C272.353 422.326 261.994 423.051 252.59 421.55C247.975 420.79 243.616 419.234 241.408 416.823C240.3 415.634 239.684 414.27 239.518 412.679C239.384 411.622 239.545 410.325 239.849 409.195C244.723 397.37 250.836 385.863 257.684 374.8C257.896 374.463 258.124 374.133 258.337 373.796C265.667 377.773 286.938 384.291 345.393 380.147C426.585 374.395 439 334 413 333.5C387 333 273.656 351.131 292.424 330.789C311.192 310.447 320.76 304.803 345.313 292.49C369.865 280.177 394.495 280.122 394.495 280.122C393.625 280.105 392.467 280.096 391.076 280.117C396.298 279.7 401.556 279.578 406.812 279.784C419.608 280.292 432.358 282.439 444.791 285.697C469.698 292.272 493.318 302.736 516.45 313.782C539.595 324.903 562.303 336.838 585.347 348.332C608.417 359.786 631.913 370.594 655.874 380.527C667.867 385.471 679.486 390.171 691.823 394.407C693.843 395.095 696.195 395.74 697.41 396.395V395.186C696.195 394.519 694.228 393.845 692.393 393.159C680.243 388.624 668.573 383.63 656.789 378.397C633.213 367.931 610.383 356.416 587.634 344.611C564.884 332.803 542.433 320.556 519.355 309.031C496.266 297.587 472.589 286.613 446.916 279.425C434.099 275.88 420.77 273.348 407.157 272.801C393.565 272.199 379.788 273.561 366.68 276.942C353.554 280.303 341.174 285.585 329.77 292.014C318.356 298.493 307.864 305.921 298.116 314.236C278.815 330.909 262.976 350.297 249.836 370.94C243.3 381.289 237.485 392.008 232.608 403.099C232.365 403.651 232.137 404.209 231.897 404.764L231.742 404.707C231.365 405.569 231.109 406.331 230.911 407.078C226.83 416.929 223.226 427.097 221.277 437.577C220.887 439.778 221.13 442.002 219.915 444.243V464.266C221.13 464.781 219.915 465.294 219.915 465.81V465.827C221.13 467.417 220.948 468.775 221.394 470.097C221.741 471.449 222.326 472.8 222.788 474.148C224.91 480.196 228.681 486.216 234.116 490.778C235.784 492.203 237.704 493.6 239.62 494.675H315.659C321.62 493.6 327.547 491.866 333.446 490.412C384.482 477.565 434.288 462.138 485.29 450.38Z" fill="black"/>
<path d="M467.336 360.699C468.332 362.744 469.725 364.687 471.622 366.3C473.498 367.899 476.117 369.108 478.84 369.214C481.673 369.341 484.269 368.366 486.285 366.982C488.32 365.585 489.849 363.809 491.089 361.947C493.541 358.192 494.813 353.991 495.225 349.779C495.636 345.567 495.192 341.252 493.494 337.221C492.63 335.217 491.46 333.261 489.731 331.615C488.015 329.98 485.605 328.674 482.834 328.428C480.062 328.169 477.283 329.02 475.113 330.351C472.924 331.69 471.173 333.428 469.801 335.315C467.043 339.108 465.651 343.443 465.188 347.784C464.805 352.129 465.348 356.59 467.336 360.699Z" fill="black"/>
<path d="M504.253 370.947C505.902 372.435 508.265 373.616 510.799 373.699C513.416 373.787 515.698 372.814 517.456 371.526C519.175 370.317 520.471 368.787 521.519 367.187C523.6 363.963 524.681 360.363 525.023 356.757C525.38 353.15 525.014 349.454 523.584 345.998C522.854 344.278 521.87 342.598 520.414 341.174C518.94 339.675 516.837 338.407 514.278 338.151C511.711 337.894 509.18 338.755 507.259 340.001C505.393 341.167 503.894 342.667 502.725 344.292C500.375 347.564 499.182 351.287 498.782 355.014C498.457 358.745 498.918 362.578 500.608 366.114C501.457 367.872 502.638 369.55 504.253 370.947Z" fill="black"/>
<path d="M534.308 375.423C535.727 376.794 537.843 377.949 540.18 378.012C542.582 378.063 544.558 377.084 546.05 375.899C547.453 374.873 548.513 373.594 549.378 372.257C551.081 369.56 551.966 366.565 552.26 363.562C552.553 360.562 552.255 357.485 551.096 354.602C550.502 353.163 549.707 351.761 548.513 350.564C547.285 349.193 545.493 347.968 543.142 347.699C540.78 347.452 538.501 348.317 536.827 349.481C535.284 350.471 534.044 351.734 533.075 353.099C531.125 355.843 530.136 358.961 529.802 362.072C529.532 365.193 529.911 368.394 531.306 371.355C532.001 372.832 532.975 374.239 534.308 375.423Z" fill="black"/>
<path d="M559.21 379.555C560.408 380.809 562.267 381.94 564.411 381.982C566.598 381.994 568.269 381.016 569.498 379.927C570.585 379.089 571.413 378.056 572.084 376.979C573.414 374.817 574.107 372.423 574.336 370.026C574.572 367.627 574.352 365.174 573.458 362.861C573.002 361.71 572.385 360.582 571.473 359.61C570.476 358.374 569.003 357.185 566.868 356.908C564.708 356.665 562.671 357.536 561.246 358.618C560.023 359.433 559.041 360.456 558.275 361.565C556.726 363.78 555.944 366.289 555.667 368.784C555.455 371.295 555.753 373.869 556.848 376.257C557.402 377.447 558.165 378.585 559.21 379.555Z" fill="black"/>
<path d="M584.117 383.691C585.09 384.832 586.698 385.934 588.648 385.957C590.619 385.926 591.981 384.951 592.943 383.959C593.717 383.306 594.312 382.523 594.795 381.711C595.746 380.074 596.245 378.285 596.414 376.491C596.596 374.696 596.447 372.864 595.826 371.127C595.505 370.259 595.074 369.404 594.429 368.659C593.678 367.552 592.512 366.405 590.585 366.118C588.63 365.878 586.845 366.758 585.666 367.757C584.77 368.397 584.041 369.182 583.478 370.03C582.337 371.719 581.749 373.62 581.541 375.503C581.383 377.399 581.596 379.344 582.396 381.16C582.798 382.063 583.357 382.936 584.117 383.691Z" fill="black"/>
<path d="M603.875 387.481C604.621 388.506 605.971 389.586 607.732 389.586C609.487 389.519 610.538 388.538 611.241 387.647C611.701 387.18 612.059 386.645 612.356 386.095C612.931 384.99 613.239 383.8 613.347 382.613C613.469 381.424 613.396 380.21 613.04 379.044C612.857 378.463 612.605 377.886 612.242 377.366C611.729 376.388 610.871 375.282 609.156 374.984C607.402 374.75 605.865 375.635 604.932 376.552C604.361 377.015 603.897 377.568 603.529 378.151C602.79 379.317 602.406 380.609 602.265 381.874C602.166 383.162 602.296 384.475 602.798 385.716C603.047 386.339 603.4 386.942 603.875 387.481Z" fill="black"/>
<path d="M624.243 393.045C625.784 392.938 626.526 391.958 626.961 391.162C627.408 390.327 627.626 389.444 627.706 388.565C627.794 387.683 627.753 386.786 627.474 385.897C627.204 385.054 626.662 383.991 625.155 383.676C623.606 383.451 622.315 384.341 621.63 385.178C620.885 386.037 620.532 387.1 620.41 388.08C620.344 389.092 620.489 390.137 621.056 391.101C621.58 392.014 622.674 393.065 624.243 393.045Z" fill="black"/>
<g filter="url(#filter0_d_16_76)">
<path d="M442.938 552.781C442.938 555.562 442.406 558.188 441.344 560.656C440.312 563.094 438.875 565.234 437.031 567.078C435.219 568.891 433.078 570.328 430.609 571.391C428.172 572.422 425.562 572.938 422.781 572.938C420.281 572.938 417.875 572.5 415.562 571.625C413.281 570.75 411.219 569.469 409.375 567.781C407.531 569.469 405.453 570.75 403.141 571.625C400.828 572.5 398.422 572.938 395.922 572.938C393.141 572.938 390.516 572.422 388.047 571.391C385.609 570.328 383.469 568.891 381.625 567.078C379.812 565.234 378.375 563.094 377.312 560.656C376.281 558.188 375.766 555.562 375.766 552.781V504.781H389.219V552.781C389.219 553.719 389.391 554.609 389.734 555.453C390.078 556.266 390.547 556.984 391.141 557.609C391.766 558.203 392.484 558.672 393.297 559.016C394.109 559.359 394.984 559.531 395.922 559.531C396.859 559.531 397.734 559.359 398.547 559.016C399.359 558.672 400.062 558.203 400.656 557.609C401.281 556.984 401.766 556.266 402.109 555.453C402.453 554.609 402.625 553.719 402.625 552.781V504.781H416.078V552.781C416.078 553.719 416.25 554.609 416.594 555.453C416.938 556.266 417.406 556.984 418 557.609C418.625 558.203 419.344 558.672 420.156 559.016C420.969 559.359 421.844 559.531 422.781 559.531C423.719 559.531 424.594 559.359 425.406 559.016C426.219 558.672 426.922 558.203 427.516 557.609C428.141 556.984 428.625 556.266 428.969 555.453C429.344 554.609 429.531 553.719 429.531 552.781V504.781H442.938V552.781ZM468.719 508.156C468.719 509.344 468.484 510.453 468.016 511.484C467.578 512.516 466.969 513.422 466.188 514.203C465.406 514.953 464.484 515.562 463.422 516.031C462.391 516.469 461.281 516.688 460.094 516.688C458.906 516.688 457.781 516.469 456.719 516.031C455.688 515.562 454.781 514.953 454 514.203C453.25 513.422 452.641 512.516 452.172 511.484C451.734 510.453 451.516 509.344 451.516 508.156C451.516 507 451.734 505.906 452.172 504.875C452.641 503.812 453.25 502.906 454 502.156C454.781 501.375 455.688 500.766 456.719 500.328C457.781 499.859 458.906 499.625 460.094 499.625C461.281 499.625 462.391 499.859 463.422 500.328C464.484 500.766 465.406 501.375 466.188 502.156C466.969 502.906 467.578 503.812 468.016 504.875C468.484 505.906 468.719 507 468.719 508.156ZM466.516 572H453.625V521.797H466.516V572ZM489.109 572H476.312V521.797H479.406L483.625 526.672C485.688 524.797 488.016 523.359 490.609 522.359C493.234 521.328 495.969 520.812 498.812 520.812C501.875 520.812 504.766 521.406 507.484 522.594C510.203 523.75 512.578 525.359 514.609 527.422C516.641 529.453 518.234 531.844 519.391 534.594C520.578 537.312 521.172 540.219 521.172 543.312V572H508.375V543.312C508.375 542 508.125 540.766 507.625 539.609C507.125 538.422 506.438 537.391 505.562 536.516C504.688 535.641 503.672 534.953 502.516 534.453C501.359 533.953 500.125 533.703 498.812 533.703C497.469 533.703 496.203 533.953 495.016 534.453C493.828 534.953 492.797 535.641 491.922 536.516C491.047 537.391 490.359 538.422 489.859 539.609C489.359 540.766 489.109 542 489.109 543.312V572ZM543.109 572H530.312V521.797H533.406L537.625 527.75C539.688 525.875 542.031 524.438 544.656 523.438C547.281 522.406 550 521.891 552.812 521.891H564.109V534.641H552.812C551.469 534.641 550.203 534.891 549.016 535.391C547.828 535.891 546.797 536.578 545.922 537.453C545.047 538.328 544.359 539.359 543.859 540.547C543.359 541.734 543.109 543 543.109 544.344V572ZM617.734 572H614.641L609.672 565.109C608.453 566.203 607.156 567.234 605.781 568.203C604.438 569.141 603.016 569.969 601.516 570.688C600.016 571.375 598.469 571.922 596.875 572.328C595.312 572.734 593.719 572.938 592.094 572.938C588.562 572.938 585.234 572.344 582.109 571.156C579.016 569.969 576.297 568.25 573.953 566C571.641 563.719 569.812 560.938 568.469 557.656C567.125 554.375 566.453 550.641 566.453 546.453C566.453 542.547 567.125 538.969 568.469 535.719C569.812 532.438 571.641 529.625 573.953 527.281C576.297 524.938 579.016 523.125 582.109 521.844C585.234 520.531 588.562 519.875 592.094 519.875C593.719 519.875 595.328 520.078 596.922 520.484C598.516 520.891 600.062 521.453 601.562 522.172C603.062 522.891 604.484 523.734 605.828 524.703C607.203 525.672 608.484 526.719 609.672 527.844L614.641 521.891H617.734V572ZM604.844 546.453C604.844 544.703 604.5 543.016 603.812 541.391C603.156 539.734 602.25 538.281 601.094 537.031C599.938 535.75 598.578 534.734 597.016 533.984C595.484 533.203 593.844 532.812 592.094 532.812C590.344 532.812 588.688 533.109 587.125 533.703C585.594 534.297 584.25 535.172 583.094 536.328C581.969 537.484 581.078 538.922 580.422 540.641C579.766 542.328 579.438 544.266 579.438 546.453C579.438 548.641 579.766 550.594 580.422 552.312C581.078 554 581.969 555.422 583.094 556.578C584.25 557.734 585.594 558.609 587.125 559.203C588.688 559.797 590.344 560.094 592.094 560.094C593.844 560.094 595.484 559.719 597.016 558.969C598.578 558.188 599.938 557.172 601.094 555.922C602.25 554.641 603.156 553.188 603.812 551.562C604.5 549.906 604.844 548.203 604.844 546.453ZM640.328 572H627.531V501.828H640.328V524C641.859 522.844 643.438 522.031 645.062 521.562C646.688 521.062 648.344 520.812 650.031 520.812C653.125 520.812 656.031 521.406 658.75 522.594C661.469 523.75 663.828 525.359 665.828 527.422C667.859 529.453 669.453 531.844 670.609 534.594C671.797 537.312 672.391 540.219 672.391 543.312V572H659.5V543.312H659.594C659.594 542 659.344 540.766 658.844 539.609C658.344 538.422 657.656 537.391 656.781 536.516C655.906 535.641 654.891 534.953 653.734 534.453C652.578 533.953 651.344 533.703 650.031 533.703C648.688 533.703 647.422 533.953 646.234 534.453C645.047 534.953 644.016 535.641 643.141 536.516C642.266 537.391 641.578 538.422 641.078 539.609C640.578 540.766 640.328 542 640.328 543.312V572Z" fill="black"/>
</g>
</g>
<defs>
<filter id="filter0_d_16_76" x="371.766" y="499.625" width="304.625" height="84.3125" filterUnits="userSpaceOnUse" color-interpolation-filters="sRGB">
<feFlood flood-opacity="0" result="BackgroundImageFix"/>
<feColorMatrix in="SourceAlpha" type="matrix" values="0 0 0 0 0 0 0 0 0 0 0 0 0 0 0 0 0 0 127 0" result="hardAlpha"/>
<feOffset dy="7"/>
<feGaussianBlur stdDeviation="2"/>
<feComposite in2="hardAlpha" operator="out"/>
<feColorMatrix type="matrix" values="0 0 0 0 0 0 0 0 0 0 0 0 0 0 0 0 0 0 0.33 0"/>
<feBlend mode="normal" in2="BackgroundImageFix" result="effect1_dropShadow_16_76"/>
<feBlend mode="normal" in="SourceGraphic" in2="effect1_dropShadow_16_76" result="shape"/>
</filter>
</defs>
</svg>
